<?xml version="1.0" encoding="UTF-8" standalone="no"?>
<!-- Created with Inkscape (http://www.inkscape.org/) -->

<svg
   xmlns:dc="http://purl.org/dc/elements/1.1/"
   xmlns:cc="http://creativecommons.org/ns#"
   xmlns:rdf="http://www.w3.org/1999/02/22-rdf-syntax-ns#"
   xmlns:svg="http://www.w3.org/2000/svg"
   xmlns="http://www.w3.org/2000/svg"
   xmlns:sodipodi="http://sodipodi.sourceforge.net/DTD/sodipodi-0.dtd"
   xmlns:inkscape="http://www.inkscape.org/namespaces/inkscape"
   width="500"
   height="500"
   id="svg2"
   version="1.1"
   inkscape:version="0.48.4 r9939"
   sodipodi:docname="notic-notif.svg">
  <defs
     id="defs4" />
  <sodipodi:namedview
     id="base"
     pagecolor="#ffffff"
     bordercolor="#666666"
     borderopacity="1.0"
     inkscape:pageopacity="0.0"
     inkscape:pageshadow="2"
     inkscape:zoom="1"
     inkscape:cx="745.35576"
     inkscape:cy="171.145"
     inkscape:document-units="px"
     inkscape:current-layer="layer1"
     showgrid="false"
     inkscape:snap-grids="true"
     inkscape:window-width="958"
     inkscape:window-height="990"
     inkscape:window-x="0"
     inkscape:window-y="24"
     inkscape:window-maximized="0" />
  <metadata
     id="metadata7">
    <rdf:RDF>
      <cc:Work
         rdf:about="">
        <dc:format>image/svg+xml</dc:format>
        <dc:type
           rdf:resource="http://purl.org/dc/dcmitype/StillImage" />
        <dc:title />
      </cc:Work>
    </rdf:RDF>
  </metadata>
  <g
     inkscape:label="Layer 1"
     inkscape:groupmode="layer"
     id="layer1"
     transform="translate(0,-552.36218)">
    <text
       xml:space="preserve"
       style="font-size:40px;font-style:normal;font-variant:normal;font-weight:normal;font-stretch:normal;line-height:125%;letter-spacing:0px;word-spacing:0px;fill:#000000;fill-opacity:1;stroke:none;font-family:Ubuntu;-inkscape-font-specification:Ubuntu"
       x="227.28432"
       y="533.1438"
       id="text2989"
       sodipodi:linespacing="125%"><tspan
         sodipodi:role="line"
         id="tspan2991"
         x="227.28432"
         y="533.1438"
         style="font-style:normal;font-variant:normal;font-weight:900;font-stretch:normal;font-family:VAL Stencil cyr-lat;-inkscape-font-specification:VAL Stencil cyr-lat Heavy" /></text>
    <path
       sodipodi:type="arc"
       style="fill:#007bff;fill-opacity:1;fill-rule:nonzero;stroke:#ffffff;stroke-width:8.36647701000000055;stroke-linecap:butt;stroke-linejoin:round;stroke-miterlimit:4;stroke-opacity:1;stroke-dasharray:none"
       id="path3922"
       sodipodi:cx="-1514.2186"
       sodipodi:cy="631.1286"
       sodipodi:rx="204.05081"
       sodipodi:ry="204.05081"
       d="m -1310.1678,631.1286 c 0,112.69415 -91.3567,204.05081 -204.0508,204.05081 -112.6942,0 -204.0508,-91.35666 -204.0508,-204.05081 0,-112.69415 91.3566,-204.05081 204.0508,-204.05081 112.6941,0 204.0508,91.35666 204.0508,204.05081 z"
       transform="matrix(1.1952462,0,0,1.1952462,2059.7397,47.962882)" />
    <g
       style="font-size:650px;font-style:normal;font-variant:normal;font-weight:normal;font-stretch:normal;line-height:125%;letter-spacing:0px;word-spacing:0px;fill:#ffffff;fill-opacity:1;stroke:none;font-family:Ubuntu;-inkscape-font-specification:Ubuntu"
       id="text3928-7"
       transform="matrix(1.1914136,0.09563988,-0.09563988,1.1914136,-2227.1952,-7.0501694)">
      <path
         d="m 1978,472.50503 126,125.6 0,2.4 c -0.5335,1.33338 -0.5335,2.26671 0,2.8 -2.6668,13.33337 -10.0001,24.80002 -22,34.4 -11.7334,9.33334 -25.0667,14 -40,14 -17.8667,0 -32.9334,-6.13333 -45.2,-18.4 -12.5333,-12.5333 -18.8,-27.73329 -18.8,-45.6 l 0,-115.2 m 284,115.2 c -3e-4,14.66671 -4.0003,27.33337 -12,38 -7.2003,9.86668 -16.8003,16.80001 -28.8,20.8 -10.1336,4.26667 -22.0002,5.2 -35.6,2.8 -12.8002,-2.93333 -23.4669,-8.66666 -32,-17.2 l -0.8,-0.4 -174.8,-174.4 0,-27.2 c 0,-16.79976 6.2667,-31.86641 18.8,-45.2 12.5333,-12.53306 27.6,-18.79972 45.2,-18.8 17.5999,2.8e-4 33.8666,7.46694 48.8,22.4 l 171.2,170 0,29.2 m 0,-44 -124.8,-123.6 -1.2,-4.4 c 2.6665,-13.59975 9.9998,-25.33307 22,-35.2 11.4665,-9.59972 24.6665,-14.39972 39.6,-14.4 17.8664,2.8e-4 33.0664,6.26694 45.6,18.8 12.5331,12.53359 18.7997,27.60024 18.8,45.2 l 0,113.6"
         style="font-size:400px;font-weight:900;fill:#ffffff;fill-opacity:1;font-family:VAL Stencil cyr-lat;-inkscape-font-specification:VAL Stencil cyr-lat Heavy"
         id="path3954"
         inkscape:connector-curvature="0"
         sodipodi:nodetypes="cccccsssccccccccsccccccccccccc" />
    </g>
    <path
       sodipodi:type="arc"
       style="fill:#ef2929;fill-opacity:1;fill-rule:nonzero;stroke:#ffffff;stroke-width:25.50266075;stroke-linecap:butt;stroke-linejoin:round;stroke-miterlimit:4;stroke-opacity:1;stroke-dasharray:none"
       id="path5530"
       sodipodi:cx="569.72601"
       sodipodi:cy="696.78851"
       sodipodi:rx="137.38075"
       sodipodi:ry="137.38075"
       d="m 707.10677,696.78851 c 0,75.8733 -61.50746,137.38076 -137.38076,137.38076 -75.87329,0 -137.38075,-61.50746 -137.38075,-137.38076 0,-75.87329 61.50746,-137.38075 137.38075,-137.38075 75.8733,0 137.38076,61.50746 137.38076,137.38075 z"
       transform="matrix(0.7842319,0,0,0.7842319,-72.79731,379.9184)" />
  </g>
</svg>
