<?xml version="1.0" encoding="UTF-8" standalone="no"?>
<!-- Created with Inkscape (http://www.inkscape.org/) -->

<svg
   xmlns:dc="http://purl.org/dc/elements/1.1/"
   xmlns:cc="http://creativecommons.org/ns#"
   xmlns:rdf="http://www.w3.org/1999/02/22-rdf-syntax-ns#"
   xmlns:svg="http://www.w3.org/2000/svg"
   xmlns="http://www.w3.org/2000/svg"
   xmlns:sodipodi="http://sodipodi.sourceforge.net/DTD/sodipodi-0.dtd"
   xmlns:inkscape="http://www.inkscape.org/namespaces/inkscape"
   width="500"
   height="500"
   id="svg2"
   version="1.1"
   inkscape:version="0.48.4 r9939"
   sodipodi:docname="notic-logo.svg">
  <defs
     id="defs4" />
  <sodipodi:namedview
     id="base"
     pagecolor="#ffffff"
     bordercolor="#666666"
     borderopacity="1.0"
     inkscape:pageopacity="0.0"
     inkscape:pageshadow="2"
     inkscape:zoom="1"
     inkscape:cx="374.17495"
     inkscape:cy="186.145"
     inkscape:document-units="px"
     inkscape:current-layer="layer1"
     showgrid="false"
     inkscape:snap-grids="true"
     inkscape:window-width="958"
     inkscape:window-height="990"
     inkscape:window-x="589"
     inkscape:window-y="35"
     inkscape:window-maximized="0" />
  <metadata
     id="metadata7">
    <rdf:RDF>
      <cc:Work
         rdf:about="">
        <dc:format>image/svg+xml</dc:format>
        <dc:type
           rdf:resource="http://purl.org/dc/dcmitype/StillImage" />
        <dc:title />
      </cc:Work>
    </rdf:RDF>
  </metadata>
  <g
     inkscape:label="Layer 1"
     inkscape:groupmode="layer"
     id="layer1"
     transform="translate(0,-552.36218)">
    <text
       xml:space="preserve"
       style="font-size:40px;font-style:normal;font-variant:normal;font-weight:normal;font-stretch:normal;line-height:125%;letter-spacing:0px;word-spacing:0px;fill:#000000;fill-opacity:1;stroke:none;font-family:Ubuntu;-inkscape-font-specification:Ubuntu"
       x="227.28432"
       y="533.1438"
       id="text2989"
       sodipodi:linespacing="125%"><tspan
         sodipodi:role="line"
         id="tspan2991"
         x="227.28432"
         y="533.1438"
         style="font-style:normal;font-variant:normal;font-weight:900;font-stretch:normal;font-family:VAL Stencil cyr-lat;-inkscape-font-specification:VAL Stencil cyr-lat Heavy" /></text>
    <path
       sodipodi:type="arc"
       style="fill:#00bcd4;fill-opacity:1;fill-rule:nonzero;stroke:#ffffff;stroke-width:8.36647701000000055;stroke-linecap:butt;stroke-linejoin:round;stroke-miterlimit:4;stroke-opacity:1;stroke-dasharray:none"
       id="path3922"
       sodipodi:cx="-1514.2186"
       sodipodi:cy="631.1286"
       sodipodi:rx="204.05081"
       sodipodi:ry="204.05081"
       d="m -1310.1678,631.1286 c 0,112.69415 -91.3567,204.05081 -204.0508,204.05081 -112.6942,0 -204.0508,-91.35666 -204.0508,-204.05081 0,-112.69415 91.3566,-204.05081 204.0508,-204.05081 112.6941,0 204.0508,91.35666 204.0508,204.05081 z"
       transform="matrix(1.1952462,0,0,1.1952462,2059.7397,47.962882)" />
    <g
       style="font-size:650px;font-style:normal;font-variant:normal;font-weight:normal;font-stretch:normal;line-height:125%;letter-spacing:0px;word-spacing:0px;fill:#ffffff;fill-opacity:1;stroke:none;font-family:Ubuntu;-inkscape-font-specification:Ubuntu"
       id="text3928-7"
       transform="matrix(1.1914136,0.09563988,-0.09563988,1.1914136,-2227.1952,-7.0501694)">
      <path
         d="m 1978,472.50503 126,125.6 0,2.4 c -0.5335,1.33338 -0.5335,2.26671 0,2.8 -2.6668,13.33337 -10.0001,24.80002 -22,34.4 -11.7334,9.33334 -25.0667,14 -40,14 -17.8667,0 -32.9334,-6.13333 -45.2,-18.4 -12.5333,-12.5333 -18.8,-27.73329 -18.8,-45.6 l 0,-115.2 m 284,115.2 c -3e-4,14.66671 -4.0003,27.33337 -12,38 -7.2003,9.86668 -16.8003,16.80001 -28.8,20.8 -10.1336,4.26667 -22.0002,5.2 -35.6,2.8 -12.8002,-2.93333 -23.4669,-8.66666 -32,-17.2 l -0.8,-0.4 -174.8,-174.4 0,-27.2 c 0,-16.79976 6.2667,-31.86641 18.8,-45.2 12.5333,-12.53306 27.6,-18.79972 45.2,-18.8 17.5999,2.8e-4 33.8666,7.46694 48.8,22.4 l 171.2,170 0,29.2 m 0,-44 -124.8,-123.6 -1.2,-4.4 c 2.6665,-13.59975 9.9998,-25.33307 22,-35.2 11.4665,-9.59972 24.6665,-14.39972 39.6,-14.4 17.8664,2.8e-4 33.0664,6.26694 45.6,18.8 12.5331,12.53359 18.7997,27.60024 18.8,45.2 l 0,113.6"
         style="font-size:400px;font-weight:900;fill:#ffffff;fill-opacity:1;font-family:VAL Stencil cyr-lat;-inkscape-font-specification:VAL Stencil cyr-lat Heavy"
         id="path3954"
         inkscape:connector-curvature="0"
         sodipodi:nodetypes="cccccsssccccccccsccccccccccccc" />
    </g>
    <path
       style="fill:#007bff;stroke:none;fill-opacity:1"
       d="m 234.47311,487.70395 c -21.45824,-1.33738 -45.8189,-6.37999 -65.39877,-13.53741 -13.86054,-5.06672 -37.98683,-17.23505 -49.78982,-25.112 C 64.562718,412.53495 27.569491,357.12682 15.598801,293.755 c -4.49201,-23.78032 -4.773786,-60.66144 -0.64177,-84 C 31.355922,117.13039 100.24126,42.369117 190.50876,19.228669 c 22.04132,-5.650382 33.04108,-6.933966 59.46435,-6.939006 31.25623,-0.006 47.59065,2.598201 76.43698,12.186195 82.91705,27.560113 145.36134,101.871332 159.05271,189.279142 2.29094,14.62573 3.0741,44.74229 1.54849,59.54779 -5.91238,57.3775 -30.17903,107.20173 -72.14838,148.13487 -34.12204,33.27958 -79.07315,55.86088 -126.9292,63.76321 -8.11304,1.33968 -37.37743,3.78579 -40.4606,3.38196 -0.55,-0.072 -6.4,-0.46754 -13,-0.87888 l 0,0 z m 125,-64.51829 c 19.26158,-5.82179 32.80561,-16.29943 42.56814,-32.93066 6.71221,-11.43476 9.19449,-22.1768 11.41667,-49.40543 1.20019,-14.70616 1.25217,-18.722 0.25864,-19.9805 -0.6839,-0.8663 -44.32372,-51.85479 -96.97738,-113.30777 -67.83151,-79.16731 -97.85168,-113.487236 -103,-117.752596 -9.04669,-7.495146 -20.7102,-13.453518 -31.68178,-16.184826 -11.8798,-2.957403 -30.04309,-2.319709 -41.58429,1.459982 -26.62405,8.719257 -47.97258,33.85872 -51.946781,61.17114 -0.320119,2.2 -1.22543,11.79519 -2.0118,21.32265 l -1.429765,17.32266 93.079196,109.17734 c 51.19355,60.04754 96.50593,112.69272 100.69417,116.98928 17.75094,18.21004 36.9989,26.15911 61.11498,25.2394 7.6557,-0.29196 12.93797,-1.13731 19.5,-3.12067 l 0,0 z m -186,-13.84488 c 19.9722,-6.78182 36.82732,-21.31451 44.90896,-38.72104 1.88065,-4.05061 3.69494,-9.39804 4.03175,-11.88319 l 0.61239,-4.51844 -66.16733,-77.48156 C 77.383937,183.67185 84.980771,192.41401 84.233171,193.16161 83.226235,194.16854 72.989509,324.24778 72.932934,336.755 c -0.03779,8.3539 0.489097,13.59107 1.925935,19.14353 6.24671,24.13952 25.792001,45.40554 48.614241,52.89414 9.6262,3.15861 15.32153,3.87247 28.5,3.57221 11.54858,-0.26313 14.6564,-0.70026 21.5,-3.0241 l 0,0 z M 422.0121,234.95637 c 5.85457,-74.44518 5.98623,-82.25415 1.61357,-95.70137 -3.78375,-11.63613 -8.98179,-19.80474 -19.15256,-30.09787 -13.60991,-13.773642 -27.80037,-20.58198 -46.44908,-22.285468 -23.46949,-2.143849 -43.82465,5.082309 -61.42112,21.804728 -10.53732,10.01391 -19.89456,26.91464 -18.84831,34.0432 0.31584,2.15189 10.94304,15.18635 38.52655,47.25349 103.3706,120.17327 99.01778,115.23523 99.78812,113.20397 0.40091,-1.05713 3.07518,-31.75643 5.94283,-68.22068 z"
       id="path2987"
       inkscape:connector-curvature="0"
       transform="translate(0,552.36218)" />
    <path
       style="fill:#005c94;stroke:none"
       d="M 229.47311,487.53703 C 173.11781,481.67092 124.87986,459.74756 85.663722,422.17803 48.127621,386.21799 23.982901,341.13514 14.957031,290.155 12.145258,274.27348 11.136596,241.41927 12.952529,224.86425 16.283168,194.50036 24.435359,167.55785 38.503996,140.41816 62.054347,94.987366 98.420638,59.377956 144.47311,36.65455 175.30535,21.441174 202.56133,14.178101 236.32088,12.179293 341.8667,5.9302206 439.55361,71.218069 474.93633,171.655 c 9.691,27.50876 13.69108,54.34124 12.73886,85.45221 -1.14902,37.541 -8.95812,68.11031 -25.88839,101.34204 -34.28939,67.3052 -98.38168,113.93507 -174.31369,126.82061 -11.62238,1.9723 -47.39807,3.37074 -58,2.26717 l 0,0 z m 128.5,-64.07434 c 15.88249,-4.51881 25.07896,-10.05312 35.083,-21.11247 13.39191,-14.80461 17.9844,-28.90326 20.42231,-62.69522 0.31743,-4.4 0.82013,-10.09607 1.1171,-12.65793 l 0.53994,-4.65792 -92.87985,-108.34208 C 271.17169,154.40893 226.48882,102.56967 222.96035,98.798719 203.41584,77.911056 180.66336,68.90618 155.30529,72.022502 c -18.40402,2.26172 -30.69582,8.366674 -44.4206,22.062311 -9.74719,9.726487 -15.542355,18.808257 -19.412878,30.422457 -2.507659,7.52467 -2.817345,9.85912 -5.93525,44.74046 l -0.499912,5.59273 95.05079,111.40727 c 52.27794,61.274 96.70114,113.13816 98.71823,115.2537 20.70259,21.713 50.74684,30.04735 79.16744,21.96126 z M 160.75528,412.1475 c 29.43395,-3.82262 57.19429,-28.15814 61.76119,-54.14166 0.64003,-3.64142 0.49441,-3.8212 -68.70099,-84.82056 l -69.34237,-81.17141 -0.745048,3.82057 c -0.409777,2.10131 -3.043195,32.84556 -5.85204,68.32056 -5.955966,75.22233 -6.065717,84.17744 -1.196964,97.66548 3.826183,10.59977 8.31364,17.9627 16.090189,26.40045 7.280583,7.89961 13.502473,12.69657 21.809893,16.81499 13.94047,6.91102 29.39428,9.29106 46.17614,7.11158 z M 416.40521,301.905 c 0.25861,-1.2375 2.79705,-31.725 5.64096,-67.75 5.69016,-72.07939 5.8963,-82.15666 1.92282,-94 -7.7961,-23.23704 -25.99746,-42.017855 -47.96139,-49.488269 -30.94767,-10.525982 -63.26117,-1.469003 -84.84097,23.779619 -6.55336,7.66751 -12.32754,19.04799 -12.94969,25.52288 l -0.46514,4.84077 8.80809,10.4225 c 9.14917,10.82609 18.19712,21.34618 84.9515,98.7734 21.97894,25.493 40.57911,47.2055 41.33369,48.25 1.81602,2.51376 2.98557,2.39848 3.56013,-0.3509 l 0,0 z"
       id="path2988"
       inkscape:connector-curvature="0"
       transform="translate(0,552.36218)" />
    <path
       style="fill:#007bff;stroke:none;fill-opacity:1"
       d="M 229.47311,487.53703 C 173.11781,481.67092 124.87986,459.74756 85.663722,422.17803 48.127621,386.21799 23.982901,341.13514 14.957031,290.155 12.145258,274.27348 11.136596,241.41927 12.952529,224.86425 16.283168,194.50036 24.435359,167.55785 38.503996,140.41816 62.054347,94.987366 98.420638,59.377956 144.47311,36.65455 175.30535,21.441174 202.56133,14.178101 236.32088,12.179293 363.19499,4.667432 474.09945,99.523541 487.02705,226.60721 c 1.50788,14.82314 0.71531,44.99473 -1.56425,59.54779 -2.36154,15.07641 -7.73094,35.21246 -12.94647,48.55116 -31.40399,80.31564 -100.0031,136.13252 -185.04322,150.5637 -11.62238,1.9723 -47.39807,3.37074 -58,2.26717 l 0,0 z m 122.33545,-62.54695 c 22.288,-4.22897 41.31471,-17.89766 50.9305,-36.58822 6.65519,-12.93593 8.39723,-20.22887 10.21081,-42.74686 0.57585,-7.15 1.29566,-15.33542 1.59956,-18.18982 l 0.55255,-5.18982 -84.30245,-98.31018 C 235.81558,113.19865 220.87565,96.001923 215.68803,91.465166 185.0933,64.708988 142.1082,64.829059 113.12863,91.751645 100.04517,103.90644 91.636273,118.70018 89.012824,134.17851 c -0.603742,3.56207 -1.726396,14.12047 -2.494788,23.4631 -1.07324,13.0492 -1.124467,17.32974 -0.221001,18.46692 1.881293,2.36796 108.215205,127.02024 153.320845,179.73374 24.43448,28.5558 43.60017,50.06626 47.04394,52.7994 19.07355,15.13772 41.65796,20.80522 65.14674,16.34841 l 0,0 z M 159.63074,412.20174 c 25.20723,-2.89871 50.95262,-21.74167 59.76123,-43.73906 3.93161,-9.81826 4.03944,-12.37493 0.71547,-16.96355 -1.59112,-2.19648 -24.18693,-28.93496 -50.21291,-59.41886 -26.02599,-30.4839 -55.8928,-65.4785 -66.37069,-77.76579 l -19.05073,-22.34052 -0.743693,3.84052 c -1.934692,9.991 -10.093014,120.97237 -10.169512,138.34052 -0.07709,17.50239 0.06142,18.91943 2.56856,26.27805 3.994185,11.7232 10.015837,21.10028 19.745817,30.74872 17.273838,17.12908 38.043858,23.97678 63.756458,21.01997 z M 416.40202,301.905 c 0.25685,-1.2375 2.59708,-28.8 5.20051,-61.25 5.64404,-70.34921 6.12628,-89.25136 2.54945,-99.92926 -8.55985,-25.55371 -28.2049,-44.591684 -53.17887,-51.535514 -24.52806,-6.819847 -50.04299,-1.170156 -69.87191,15.471514 -11.8175,9.918 -21.94683,25.55147 -22.88559,35.32132 l -0.47466,4.93984 51.86608,60.38527 c 28.52634,33.2119 59.29108,69.02732 68.36608,79.58982 9.075,10.56251 16.82893,19.21636 17.23095,19.23078 0.40202,0.0144 0.9411,-0.98627 1.19796,-2.22377 l 0,0 z"
       id="path2989"
       inkscape:connector-curvature="0"
       transform="translate(0,552.36218)" />
  </g>
</svg>
